<svg xmlns="http://www.w3.org/2000/svg" viewBox="0 0 300 300"><defs><style>.cls-1{fill:#3f6639;}.cls-2,.cls-3{fill:#fff;}.cls-2{opacity:0.67;}.cls-3{opacity:0.1;}.cls-4{fill:none;}.cls-5{fill:#2f3f2c;}</style></defs><g id="Layer_2" data-name="Layer 2"><g id="Layer_1-2" data-name="Layer 1"><path class="cls-1" d="M273.34,150a123.18,123.18,0,1,1-80.8-115.81c2.24.82,4.45,1.71,6.62,2.65A123.39,123.39,0,0,1,273.34,150Z"/><path class="cls-2" d="M114.79,72c-4.07-1.08-7.56-5-6.86-7.47,1.25-4.5,16.37-6,18.58-1.89,1.1,2.07-1.16,5.36-2.53,6.79A9.46,9.46,0,0,1,114.79,72Z"/><path class="cls-2" d="M59.13,133.53c-5.39-8.3-5.52-23.87,1.47-37.44,9.17-17.78,29.57-30.23,36.86-25.75a7.19,7.19,0,0,1,3,6.47C100.07,80.54,96,82.27,90,86.62A81,81,0,0,0,78.31,96.9c-7.25,8-9.91,17.26-11,21.15-2.86,10.37-1.85,18.15-4.42,18.64C61.37,137,59.67,134.37,59.13,133.53Z"/><path class="cls-3" d="M200.19,54.17A144.1,144.1,0,0,1,56.09,198.26a146.36,146.36,0,0,1-20.21-1.4A123.43,123.43,0,0,1,192.54,34.19c2.24.82,4.45,1.71,6.62,2.65A145.71,145.71,0,0,1,200.19,54.17Z"/><path class="cls-4" d="M273.34,150A123.19,123.19,0,1,1,192.53,34.19,123.34,123.34,0,0,1,273.34,150Z"/><circle class="cls-5" cx="273.34" cy="143.87" r="26.67"/><circle class="cls-5" cx="187.67" cy="181.54" r="26.67"/><circle class="cls-5" cx="112.33" cy="181.54" r="26.67"/><circle class="cls-5" cx="112.33" cy="112.33" r="26.67"/><circle class="cls-5" cx="187.67" cy="112.33" r="26.67"/><path class="cls-5" d="M91,64.33A26.67,26.67,0,1,1,72.49,39,26.67,26.67,0,0,1,91,64.33Z"/><path class="cls-3" d="M73.78,41.35a32,32,0,0,1-32,32c-.86,0-1.72,0-2.56-.11A26.66,26.66,0,0,1,72.49,39c.41.13.82.27,1.22.43C73.76,40,73.78,40.69,73.78,41.35Z"/><path class="cls-4" d="M91,64.33a26.66,26.66,0,0,1-50,12.9,26.63,26.63,0,0,1-3.33-12.9A26.66,26.66,0,0,1,72.49,39c.41.13.82.27,1.22.43A26.64,26.64,0,0,1,91,64.33Z"/><circle class="cls-5" cx="235.67" cy="64.33" r="26.67"/><circle class="cls-5" cx="235.67" cy="235.66" r="26.67"/><circle class="cls-5" cx="64.34" cy="235.66" r="26.67"/><circle class="cls-5" cx="26.67" cy="150" r="26.67"/><circle class="cls-5" cx="150" cy="273.33" r="26.67"/><path class="cls-5" d="M176.67,26.66A26.67,26.67,0,1,1,158.16,1.28,26.67,26.67,0,0,1,176.67,26.66Z"/><path class="cls-3" d="M159.45,3.69a32,32,0,0,1-32,32c-.86,0-1.72,0-2.56-.11A26.66,26.66,0,0,1,158.15,1.28c.41.13.82.28,1.23.43C159.43,2.36,159.45,3,159.45,3.69Z"/><path class="cls-4" d="M176.67,26.66a26.67,26.67,0,0,1-50,12.9,26.63,26.63,0,0,1-3.33-12.9A26.66,26.66,0,0,1,158.15,1.28c.41.13.82.28,1.23.43A26.65,26.65,0,0,1,176.67,26.66Z"/><path class="cls-3" d="M121.78,89.35a32,32,0,0,1-32,32c-.86,0-1.72,0-2.56-.11a26.66,26.66,0,0,1,33.28-34.31c.41.13.82.28,1.23.43C121.76,88,121.78,88.68,121.78,89.35Z"/><path class="cls-4" d="M121.71,87.37c.05.65.07,1.31.07,2a32,32,0,0,1-32,32c-.86,0-1.72,0-2.56-.11a26.66,26.66,0,0,1,33.28-34.31C120.89,87.07,121.3,87.22,121.71,87.37Z"/><path class="cls-3" d="M197.13,89.35a32,32,0,0,1-32,32c-.85,0-1.72,0-2.56-.11a26.67,26.67,0,0,1,33.29-34.31c.41.13.82.28,1.23.43C197.11,88,197.13,88.68,197.13,89.35Z"/><path class="cls-5" d="M214.34,112.32a25.87,25.87,0,0,1-.31,4.06,26.68,26.68,0,0,1-23.7,22.48,26,26,0,0,1-2.66.13,26.66,26.66,0,0,1-22.55-12.44c-.28-.43-.54-.88-.79-1.33a26.3,26.3,0,0,1-1.79-4c.84.08,1.71.11,2.56.11a32,32,0,0,0,32-32c0-.67,0-1.33-.07-2A26.65,26.65,0,0,1,214.34,112.32Z"/><path class="cls-4" d="M197.13,89.35a32,32,0,0,1-32,32c-.85,0-1.72,0-2.56-.11a26.67,26.67,0,0,1,33.29-34.31c.41.13.82.28,1.23.43C197.11,88,197.13,88.68,197.13,89.35Z"/><path class="cls-3" d="M121.78,158.56a32,32,0,0,1-32,32c-.86,0-1.72,0-2.56-.11a26.66,26.66,0,0,1,33.28-34.31c.41.13.82.28,1.23.43C121.76,157.23,121.78,157.89,121.78,158.56Z"/><path class="cls-4" d="M139,181.53a26.66,26.66,0,0,1-50,12.9,26.63,26.63,0,0,1-3.33-12.9,26.66,26.66,0,0,1,34.82-25.38c.41.13.82.28,1.23.43A26.6,26.6,0,0,1,134,166a26.5,26.5,0,0,1,5,15.57Z"/><path class="cls-3" d="M197.13,158.56a32,32,0,0,1-32,32c-.85,0-1.72,0-2.56-.11a26.67,26.67,0,0,1,33.29-34.31c.41.13.82.28,1.23.43C197.11,157.23,197.13,157.89,197.13,158.56Z"/><path class="cls-5" d="M214.34,181.53a26.67,26.67,0,0,1-50,12.9,26.3,26.3,0,0,1-1.79-4c.84.08,1.71.11,2.56.11a32,32,0,0,0,32-32c0-.67,0-1.33-.07-2a26.66,26.66,0,0,1,17.27,24.13C214.34,181,214.34,181.26,214.34,181.53Z"/><path class="cls-4" d="M197.13,158.56a32,32,0,0,1-32,32c-.85,0-1.72,0-2.56-.11a26.67,26.67,0,0,1,33.29-34.31c.41.13.82.28,1.23.43C197.11,157.23,197.13,157.89,197.13,158.56Z"/><path class="cls-3" d="M245.12,41.35a32,32,0,0,1-32,32c-.86,0-1.72,0-2.56-.11A26.66,26.66,0,0,1,243.83,39c.41.13.82.27,1.22.43C245.1,40,245.12,40.69,245.12,41.35Z"/><path class="cls-4" d="M262.34,64.33a26.67,26.67,0,0,1-17.82,25.16h0a25.77,25.77,0,0,1-3.95,1h0A26.67,26.67,0,1,1,243.83,39c.41.13.82.27,1.22.43A26.64,26.64,0,0,1,262.34,64.33Z"/><path class="cls-3" d="M240.55,90.55a30.58,30.58,0,0,1,3.95-1A25.77,25.77,0,0,1,240.55,90.55Z"/><path class="cls-3" d="M282.79,120.89a32,32,0,0,1-32,32c-.86,0-1.72,0-2.56-.11a26.66,26.66,0,0,1,33.28-34.31c.41.13.82.28,1.23.43C282.77,119.56,282.79,120.22,282.79,120.89Z"/><path class="cls-4" d="M300,143.86a26.66,26.66,0,0,1-50,12.9,26.63,26.63,0,0,1-3.33-12.9,26.66,26.66,0,0,1,34.82-25.38c.41.13.82.28,1.23.43A26.65,26.65,0,0,1,300,143.86Z"/><path class="cls-3" d="M245.12,212.68a32,32,0,0,1-32,32c-.86,0-1.72,0-2.56-.11a26.66,26.66,0,0,1,33.28-34.31c.41.13.82.27,1.22.43C245.1,211.36,245.12,212,245.12,212.68Z"/><path class="cls-4" d="M262.34,235.66a26.66,26.66,0,0,1-50,12.9,26.63,26.63,0,0,1-3.33-12.9,26.66,26.66,0,0,1,34.82-25.38c.41.13.82.27,1.22.43A26.64,26.64,0,0,1,262.34,235.66Z"/><path class="cls-3" d="M159.45,250.35a32,32,0,0,1-32,32c-.86,0-1.72,0-2.56-.11a26.66,26.66,0,0,1,33.28-34.31c.41.13.82.28,1.23.43C159.43,249,159.45,249.68,159.45,250.35Z"/><path class="cls-4" d="M176.67,273.32a26.67,26.67,0,0,1-50,12.9,26.63,26.63,0,0,1-3.33-12.9,26.66,26.66,0,0,1,34.82-25.38c.41.13.82.28,1.23.43A26.65,26.65,0,0,1,176.67,273.32Z"/><path class="cls-3" d="M73.78,212.68a32,32,0,0,1-32,32c-.86,0-1.72,0-2.56-.11a26.66,26.66,0,0,1,33.28-34.31c.41.13.82.27,1.22.43C73.76,211.35,73.78,212,73.78,212.68Z"/><path class="cls-4" d="M91,235.65a26.66,26.66,0,0,1-50,12.9,26.63,26.63,0,0,1-3.33-12.9,26.66,26.66,0,0,1,34.82-25.38c.41.13.82.27,1.22.43A26.64,26.64,0,0,1,91,235.65Z"/><path class="cls-3" d="M36.12,127a32,32,0,0,1-32,32c-.86,0-1.72,0-2.56-.11a26.66,26.66,0,0,1,33.28-34.31c.41.13.82.28,1.23.43C36.1,125.69,36.12,126.35,36.12,127Z"/><path class="cls-4" d="M53.33,150a26.66,26.66,0,0,1-50,12.9A26.63,26.63,0,0,1,0,150a26.66,26.66,0,0,1,34.82-25.38c.41.13.82.28,1.23.43A26.65,26.65,0,0,1,53.33,150Z"/><path class="cls-2" d="M62.88,48.55c-1.32-.35-2.44-1.6-2.22-2.41.41-1.45,5.28-1.94,6-.61.35.67-.38,1.73-.82,2.19A3.05,3.05,0,0,1,62.88,48.55Z"/><path class="cls-2" d="M44.93,68.39c-1.74-2.67-1.78-7.69.47-12.07,3-5.73,9.54-9.75,11.89-8.3a2.3,2.3,0,0,1,1,2.08c-.13,1.21-1.44,1.76-3.37,3.17a26.1,26.1,0,0,0-3.78,3.31,16.58,16.58,0,0,0-3.54,6.82c-.92,3.35-.6,5.86-1.42,6C45.65,69.51,45.1,68.67,44.93,68.39Z"/><path class="cls-2" d="M25.45,134.13c-1.31-.35-2.44-1.6-2.21-2.41.4-1.45,5.28-1.94,6-.61.36.67-.37,1.73-.81,2.19A3.05,3.05,0,0,1,25.45,134.13Z"/><path class="cls-2" d="M7.5,154c-1.74-2.68-1.78-7.7.48-12.08,2.95-5.73,9.53-9.74,11.88-8.3a2.33,2.33,0,0,1,1,2.09c-.13,1.2-1.44,1.76-3.37,3.16a25.4,25.4,0,0,0-3.77,3.32A16.43,16.43,0,0,0,10.15,149c-.93,3.35-.6,5.86-1.43,6C8.22,155.09,7.68,154.25,7.5,154Z"/><path class="cls-2" d="M110.38,95.57c-1.31-.35-2.44-1.6-2.21-2.41.4-1.45,5.28-2,6-.61.35.67-.37,1.73-.82,2.19A3.05,3.05,0,0,1,110.38,95.57Z"/><path class="cls-2" d="M92.43,115.41c-1.74-2.67-1.78-7.7.47-12.07,3-5.74,9.54-9.75,11.89-8.31a2.33,2.33,0,0,1,1,2.09c-.13,1.2-1.44,1.76-3.37,3.16a26,26,0,0,0-3.77,3.32,16.64,16.64,0,0,0-3.55,6.82c-.92,3.34-.59,5.85-1.42,6C93.15,116.53,92.6,115.68,92.43,115.41Z"/><path class="cls-2" d="M113.44,164.72c-1.32-.35-2.44-1.6-2.22-2.41.41-1.45,5.28-1.94,6-.61.35.67-.38,1.73-.82,2.19A3,3,0,0,1,113.44,164.72Z"/><path class="cls-2" d="M95.49,184.57c-1.74-2.68-1.78-7.7.47-12.08,3-5.73,9.54-9.74,11.89-8.3a2.33,2.33,0,0,1,1,2.09c-.13,1.2-1.44,1.76-3.37,3.16a26.08,26.08,0,0,0-3.78,3.32,16.56,16.56,0,0,0-3.54,6.81c-.92,3.35-.59,5.86-1.42,6C96.21,185.68,95.66,184.84,95.49,184.57Z"/><path class="cls-2" d="M62.88,219.75c-1.32-.35-2.44-1.6-2.22-2.41.41-1.45,5.28-1.94,6-.61.35.67-.38,1.73-.82,2.19A3.05,3.05,0,0,1,62.88,219.75Z"/><path class="cls-2" d="M44.93,239.59c-1.74-2.67-1.78-7.69.47-12.07,3-5.74,9.54-9.75,11.89-8.31a2.33,2.33,0,0,1,1,2.09c-.13,1.21-1.44,1.76-3.37,3.16a26.7,26.7,0,0,0-3.78,3.32,16.58,16.58,0,0,0-3.54,6.82c-.92,3.34-.6,5.85-1.42,6C45.65,240.71,45.1,239.87,44.93,239.59Z"/><path class="cls-2" d="M149.51,257.6c-1.32-.34-2.44-1.59-2.22-2.4.4-1.46,5.28-1.95,6-.61.36.66-.37,1.72-.81,2.18A3,3,0,0,1,149.51,257.6Z"/><path class="cls-2" d="M131.55,277.45c-1.73-2.68-1.78-7.7.48-12.07,3-5.74,9.54-9.75,11.89-8.31a2.32,2.32,0,0,1,1,2.09c-.12,1.2-1.43,1.76-3.36,3.16a26.7,26.7,0,0,0-3.78,3.32,16.46,16.46,0,0,0-3.54,6.82c-.92,3.34-.6,5.85-1.43,6C132.28,278.56,131.73,277.72,131.55,277.45Z"/><path class="cls-2" d="M186.55,164.72c-1.31-.35-2.43-1.6-2.21-2.41.4-1.45,5.28-1.94,6-.61.36.67-.37,1.73-.81,2.19A3,3,0,0,1,186.55,164.72Z"/><path class="cls-2" d="M168.6,184.57c-1.74-2.68-1.78-7.7.48-12.08,2.95-5.73,9.53-9.74,11.89-8.3a2.34,2.34,0,0,1,1,2.09c-.12,1.2-1.43,1.76-3.36,3.16a26.08,26.08,0,0,0-3.78,3.32,16.43,16.43,0,0,0-3.54,6.81c-.93,3.35-.6,5.86-1.43,6C169.33,185.68,168.78,184.84,168.6,184.57Z"/><path class="cls-2" d="M186.55,95.57c-1.31-.35-2.43-1.6-2.21-2.41.4-1.45,5.28-2,6-.61.36.67-.37,1.73-.81,2.19A3.07,3.07,0,0,1,186.55,95.57Z"/><path class="cls-2" d="M168.6,115.41c-1.74-2.67-1.78-7.7.48-12.07C172,97.6,178.62,93.59,181,95a2.34,2.34,0,0,1,1,2.09c-.12,1.2-1.43,1.76-3.36,3.16a26.7,26.7,0,0,0-3.78,3.32,16.46,16.46,0,0,0-3.54,6.82c-.93,3.34-.6,5.85-1.43,6C169.33,116.53,168.78,115.68,168.6,115.41Z"/><path class="cls-2" d="M149.3,11.57c-1.32-.35-2.44-1.6-2.22-2.41.41-1.45,5.28-1.94,6-.61.36.67-.37,1.73-.81,2.19A3,3,0,0,1,149.3,11.57Z"/><path class="cls-2" d="M131.34,31.42c-1.73-2.68-1.78-7.7.48-12.08,3-5.73,9.54-9.74,11.89-8.3a2.3,2.3,0,0,1,1,2.09c-.12,1.2-1.43,1.76-3.36,3.16a26.08,26.08,0,0,0-3.78,3.32A16.52,16.52,0,0,0,134,26.43c-.92,3.34-.6,5.85-1.42,6C132.07,32.53,131.52,31.69,131.34,31.42Z"/><path class="cls-2" d="M235.62,48.55c-1.31-.35-2.44-1.6-2.21-2.41.4-1.45,5.28-1.94,6-.61.36.67-.37,1.73-.81,2.19A3.08,3.08,0,0,1,235.62,48.55Z"/><path class="cls-2" d="M217.67,68.39c-1.74-2.67-1.78-7.69.48-12.07,2.95-5.73,9.53-9.75,11.88-8.3a2.3,2.3,0,0,1,1,2.08c-.13,1.21-1.43,1.76-3.37,3.17a25.41,25.41,0,0,0-3.77,3.31,16.46,16.46,0,0,0-3.54,6.82c-.93,3.35-.6,5.86-1.43,6C218.39,69.51,217.85,68.67,217.67,68.39Z"/><path class="cls-2" d="M271.62,128.17c-1.31-.35-2.44-1.6-2.21-2.4.4-1.46,5.28-2,6-.62.36.67-.37,1.73-.81,2.19A3,3,0,0,1,271.62,128.17Z"/><path class="cls-2" d="M253.67,148c-1.74-2.68-1.78-7.7.48-12.08,3-5.73,9.53-9.74,11.88-8.3a2.33,2.33,0,0,1,1,2.09c-.13,1.2-1.44,1.76-3.37,3.16a25.4,25.4,0,0,0-3.77,3.32,16.4,16.4,0,0,0-3.54,6.82c-.93,3.34-.6,5.85-1.43,6C254.39,149.13,253.85,148.29,253.67,148Z"/><path class="cls-2" d="M235.62,219.75c-1.31-.35-2.44-1.6-2.21-2.41.4-1.45,5.28-1.94,6-.61.36.67-.37,1.73-.81,2.19A3.08,3.08,0,0,1,235.62,219.75Z"/><path class="cls-2" d="M217.67,239.59c-1.74-2.67-1.78-7.69.48-12.07,2.95-5.74,9.53-9.75,11.88-8.31a2.33,2.33,0,0,1,1,2.09c-.13,1.21-1.43,1.76-3.37,3.16a26,26,0,0,0-3.77,3.32,16.46,16.46,0,0,0-3.54,6.82c-.93,3.34-.6,5.85-1.43,6C218.39,240.71,217.85,239.87,217.67,239.59Z"/></g></g></svg>